<svg height="128" viewBox="0 0 128 128" width="128" xmlns="http://www.w3.org/2000/svg" xmlns:xlink="http://www.w3.org/1999/xlink"><filter id="a" height="100%" width="100%" x="0%" y="0%"><feColorMatrix color-interpolation-filters="sRGB" values="0 0 0 0 1 0 0 0 0 1 0 0 0 0 1 0 0 0 1 0"/></filter><mask id="b"><g filter="url(#a)"><path d="m-12.8-12.8h153.6v153.6h-153.6z" fill-opacity=".311893"/></g></mask><clipPath id="c"><path d="m0 0h104v100h-104zm0 0"/></clipPath><clipPath id="d"><path d="m0 0h99v99h-99z"/></clipPath><pattern id="e" height="99" patternTransform="matrix(1.00764 .0704611 -.0704611 1.00764 355.219187 -184)" patternUnits="userSpaceOnUse" viewBox="0 0 99 99" width="99"><g clip-path="url(#d)"><path d="m25.910156 8.019531c0 .273438-.222656.496094-.496094.496094-.273437 0-.496093-.222656-.496093-.496094 0-.273437.222656-.496093.496093-.496093.273438 0 .496094.222656.496094.496093zm0 0" fill="#fff"/><path d="m30.671875 23.066406c0 .273438-.222656.496094-.496094.496094-.273437 0-.496093-.222656-.496093-.496094 0-.273437.222656-.496094.496093-.496094.273438 0 .496094.222657.496094.496094zm0 0" fill="#fff"/><path d="m44.234375 23.910156c0 .273438-.222656.492188-.496094.492188-.273437 0-.496093-.21875-.496093-.492188 0-.273437.222656-.496094.496093-.496094.273438 0 .496094.222657.496094.496094zm0 0" fill="#fff"/><path d="m18.75 29.988281c0 .273438-.222656.492188-.496094.492188-.273437 0-.492187-.21875-.492187-.492188 0-.273437.21875-.496093.492187-.496093.273438 0 .496094.222656.496094.496093zm0 0" fill="#fff"/><path d="m60.6875 13.492188c0 .273437-.222656.496093-.496094.496093-.273437 0-.496094-.222656-.496094-.496093 0-.273438.222657-.492188.496094-.492188.273438 0 .496094.21875.496094.492188zm0 0" fill="#fff"/><path d="m58.101562 43.6875c0 .273438-.21875.496094-.492187.496094s-.496094-.222656-.496094-.496094.222657-.492188.496094-.492188.492187.21875.492187.492188zm0 0" fill="#fff"/><path d="m43.113281 40.074219c0 .273437-.21875.496093-.492187.496093-.273438 0-.496094-.222656-.496094-.496093 0-.273438.222656-.492188.496094-.492188.273437 0 .492187.21875.492187.492188zm0 0" fill="#fff"/><path d="m55.351562 30.144531c0 .273438-.222656.496094-.496093.496094-.273438 0-.496094-.222656-.496094-.496094 0-.273437.222656-.492187.496094-.492187.273437 0 .496093.21875.496093.492187zm0 0" fill="#fff"/><path d="m47.867188 54.71875c0 .273438-.222657.492188-.496094.492188-.273438 0-.496094-.21875-.496094-.492188s.222656-.496094.496094-.496094c.273437 0 .496094.222656.496094.496094zm0 0" fill="#fff"/><path d="m26.898438 51.320312c0 .273438-.222657.496094-.496094.496094-.273438 0-.492188-.222656-.492188-.496094 0-.273437.21875-.492187.492188-.492187.273437 0 .496094.21875.496094.492187zm0 0" fill="#fff"/><path d="m79.347656 14.335938c0 .273437-.222656.496093-.496094.496093-.269531 0-.492187-.222656-.492187-.496093 0-.273438.222656-.496094.492187-.496094.273438 0 .496094.222656.496094.496094zm0 0" fill="#fff"/><path d="m70.261719 49.984375c0 .273437-.222657.496094-.496094.496094s-.496094-.222657-.496094-.496094.222657-.496094.496094-.496094.496094.222657.496094.496094zm0 0" fill="#fff"/><path d="m43.460938 8.859375c0 .273437-.222657.496094-.496094.496094-.273438 0-.492188-.222657-.492188-.496094s.21875-.492187.492188-.492187c.273437 0 .496094.21875.496094.492187zm0 0" fill="#fff"/><path d="m71.03125 3.367188c0 .273437-.21875.492187-.492188.492187-.273437 0-.496093-.21875-.496093-.492187 0-.273438.222656-.496094.496093-.496094.273438 0 .492188.222656.492188.496094zm0 0" fill="#fff"/><path d="m95.039062 10.386719c0 .273437-.21875.492187-.492187.492187s-.496094-.21875-.496094-.492187c0-.273438.222657-.496094.496094-.496094s.492187.222656.492187.496094zm0 0" fill="#fff"/><path d="m69.855469 26.621094c0 .273437-.222657.496094-.496094.496094s-.496094-.222657-.496094-.496094c0-.273438.222657-.496094.496094-.496094s.496094.222656.496094.496094zm0 0" fill="#fff"/><path d="m88.695312 26.621094c0 .273437-.222656.496094-.496093.496094-.273438 0-.496094-.222657-.496094-.496094 0-.273438.222656-.496094.496094-.496094.273437 0 .496093.222656.496093.496094zm0 0" fill="#fff"/><path d="m92.714844 43.628906c0 .273438-.222656.496094-.496094.496094s-.496094-.222656-.496094-.496094c0-.273437.222656-.496094.496094-.496094s.496094.222657.496094.496094zm0 0" fill="#fff"/><path d="m77.914062 38.3125c0 .273438-.222656.496094-.496093.496094-.273438 0-.496094-.222656-.496094-.496094s.222656-.496094.496094-.496094c.273437 0 .496093.222656.496093.496094zm0 0" fill="#fff"/><path d="m82.367188 58.886719c0 .273437-.222657.492187-.496094.492187-.269532 0-.492188-.21875-.492188-.492187 0-.273438.222656-.496094.492188-.496094.273437 0 .496094.222656.496094.496094zm0 0" fill="#fff"/><path d="m79.425781 73.539062c0 .273438-.21875.492188-.492187.492188-.273438 0-.496094-.21875-.496094-.492188 0-.273437.222656-.496093.496094-.496093.273437 0 .492187.222656.492187.496093zm0 0" fill="#fff"/><path d="m92.980469 79.914062c0 .273438-.222657.492188-.496094.492188s-.492187-.21875-.492187-.492188c0-.273437.21875-.496093.492187-.496093s.496094.222656.496094.496093zm0 0" fill="#fff"/><path d="m81.734375 92.21875c0 .273438-.222656.496094-.496094.496094-.273437 0-.492187-.222656-.492187-.496094s.21875-.496094.492187-.496094c.273438 0 .496094.222656.496094.496094zm0 0" fill="#fff"/><path d="m96.347656 93.800781c0 .273438-.222656.496094-.496094.496094-.273437 0-.496093-.222656-.496093-.496094 0-.273437.222656-.492187.496093-.492187.273438 0 .496094.21875.496094.492187zm0 0" fill="#fff"/><path d="m96.40625 61.242188c0 .273437-.222656.496093-.496094.496093-.273437 0-.492187-.222656-.492187-.496093 0-.273438.21875-.496094.492187-.496094.273438 0 .496094.222656.496094.496094zm0 0" fill="#fff"/><path d="m33.945312 62.332031c0 .273438-.21875.492188-.492187.492188s-.496094-.21875-.496094-.492188c0-.273437.222657-.496093.496094-.496093s.492187.222656.492187.496093zm0 0" fill="#fff"/><path d="m28.917969 81.21875c0 .273438-.222657.496094-.496094.496094s-.492187-.222656-.492187-.496094.21875-.496094.492187-.496094.496094.222656.496094.496094zm0 0" fill="#fff"/><path d="m45.9375 86.316406c0 .273438-.222656.496094-.496094.496094-.273437 0-.496094-.222656-.496094-.496094 0-.273437.222657-.492187.496094-.492187.273438 0 .496094.21875.496094.492187zm0 0" fill="#fff"/><path d="m31.988281 95.742188c0 .273437-.222656.496093-.496093.496093-.273438 0-.496094-.222656-.496094-.496093 0-.273438.222656-.496094.496094-.496094.273437 0 .496093.222656.496093.496094zm0 0" fill="#fff"/><path d="m57.261719 72.417969c0 .273437-.222657.496093-.496094.496093s-.492187-.222656-.492187-.496093c0-.273438.21875-.496094.492187-.496094s.496094.222656.496094.496094zm0 0" fill="#fff"/><path d="m66.894531 64.480469c0 .273437-.222656.492187-.496093.492187-.273438 0-.492188-.21875-.492188-.492187 0-.273438.21875-.496094.492188-.496094.273437 0 .496093.222656.496093.496094zm0 0" fill="#fff"/><path d="m57.222656 95.734375c0 .273437-.222656.492187-.496094.492187-.273437 0-.496093-.21875-.496093-.492187s.222656-.496094.496093-.496094c.273438 0 .496094.222657.496094.496094zm0 0" fill="#fff"/><path d="m65.191406 82.894531c0 .273438-.222656.492188-.496094.492188-.273437 0-.492187-.21875-.492187-.492188 0-.273437.21875-.496093.492187-.496093.273438 0 .496094.222656.496094.496093zm0 0" fill="#fff"/><path d="m43.757812 70.824219c0 .273437-.222656.496093-.496093.496093-.273438 0-.492188-.222656-.492188-.496093 0-.273438.21875-.496094.492188-.496094.273437 0 .496093.222656.496093.496094zm0 0" fill="#fff"/><path d="m6.652344 71.773438c0 .273437-.222656.496093-.496094.496093s-.492188-.222656-.492188-.496093c0-.273438.21875-.492188.492188-.492188s.496094.21875.496094.492188zm0 0" fill="#fff"/><path d="m8.722656 56.222656c0 .273438-.222656.496094-.496094.496094-.273437 0-.496093-.222656-.496093-.496094 0-.273437.222656-.496094.496093-.496094.273438 0 .496094.222657.496094.496094zm0 0" fill="#fff"/><path d="m12.9375 84.339844c0 .273437-.21875.492187-.492188.492187-.273437 0-.496093-.21875-.496093-.492187 0-.273438.222656-.496094.496093-.496094.273438 0 .492188.222656.492188.496094zm0 0" fill="#fff"/><path d="m20.1875 68.082031c0 .273438-.222656.496094-.496094.496094-.273437 0-.496094-.222656-.496094-.496094 0-.273437.222657-.496093.496094-.496093.273438 0 .496094.222656.496094.496093zm0 0" fill="#fff"/><path d="m4.199219 31.492188c0 .273437-.222657.496093-.496094.496093s-.496094-.222656-.496094-.496093c0-.273438.222657-.496094.496094-.496094s.496094.222656.496094.496094zm0 0" fill="#fff"/><path d="m12.039062 16.472656c0 .273438-.222656.496094-.496093.496094-.273438 0-.496094-.222656-.496094-.496094 0-.273437.222656-.492187.496094-.492187.273437 0 .496093.21875.496093.492187zm0 0" fill="#fff"/><path d="m11.890625.921875c0 .273437-.222656.492187-.496094.492187-.273437 0-.496093-.21875-.496093-.492187s.222656-.496094.496093-.496094c.273438 0 .496094.222657.496094.496094zm0 0" fill="#fff"/><path d="m13.386719 44.066406c0 .273438-.222657.492188-.496094.492188s-.496094-.21875-.496094-.492188c0-.273437.222657-.496094.496094-.496094s.496094.222657.496094.496094zm0 0" fill="#fff"/><path d="m30.660156 37.253906c0 .273438-.222656.496094-.496094.496094-.273437 0-.492187-.222656-.492187-.496094 0-.273437.21875-.496094.492187-.496094.273438 0 .496094.222657.496094.496094zm0 0" fill="#fff"/></g></pattern><clipPath id="f"><path d="m0 0h104v100h-104z"/></clipPath><path d="m20.21875 16h88c4.417969 0 8 3.582031 8 8v84c0 4.417969-3.582031 8-8 8h-88c-4.417969 0-8-3.582031-8-8v-84c0-4.417969 3.582031-8 8-8zm0 0" fill="#3c3058"/><path d="m20.21875 12h88c4.417969 0 8 3.582031 8 8v84c0 4.417969-3.582031 8-8 8h-88c-4.417969 0-8-3.582031-8-8v-84c0-4.417969 3.582031-8 8-8zm0 0" fill="#5f4b8b"/><g mask="url(#b)"><g clip-path="url(#f)" transform="translate(13 12)"><g clip-path="url(#c)"><path d="m7.21875 0h88c4.417969 0 8 3.582031 8 8v84c0 4.417969-3.582031 8-8 8h-88c-4.417969 0-8-3.582031-8-8v-84c0-4.417969 3.582031-8 8-8zm0 0" fill="url(#e)"/></g></g></g><g fill="none" stroke="#fff" stroke-linecap="round" stroke-linejoin="round" stroke-width="3.86508"><path d="m69.097657 63.523438c0-6.839844-5.605469-13.71875-12.441407-13.71875-.808593 0-3.476562 0-4.144531 0-6.871094 0-12.4375 6.144531-12.4375 13.71875 0 6.53125 4.132813 11.992187 9.671875 13.378906.890625.222656 1.816406.339844 2.765625.339844"/><path d="m59.421875 63.523438c0 6.839843 5.605469 13.71875 12.4375 13.71875h4.148438c6.867187 0 12.4375-6.140626 12.4375-13.71875 0-6.527344-4.136719-11.992188-9.675781-13.378907-.886719-.222656-1.8125-.339843-2.761719-.339843"/></g></svg>