<?xml version="1.0" encoding="UTF-8"?>
<svg height="16px" viewBox="0 0 16 16" width="16px" xmlns="http://www.w3.org/2000/svg" xmlns:xlink="http://www.w3.org/1999/xlink">
    <radialGradient id="a" cx="194.000015" cy="119.497597" gradientTransform="matrix(0.603776 0 0 0.552898 53.185532 113.796799)" gradientUnits="userSpaceOnUse" r="6.75">
        <stop offset="0"/>
        <stop offset="0" stop-opacity="0"/>
    </radialGradient>
    <g stroke="#000000" stroke-linecap="round" stroke-linejoin="round" stroke-width="0.939205">
        <path d="m 9.109375 7.867188 c 0 -1.617188 -1.398437 -3.246094 -3.105468 -3.246094 c -0.199219 0 -0.867188 0 -1.035157 0 c -1.714843 0 -3.105468 1.453125 -3.105468 3.246094 c 0 1.542968 1.035156 2.835937 2.417968 3.164062 c 0.222657 0.054688 0.453125 0.082031 0.6875 0.082031" fill="none"/>
        <path d="m 166.695303 179.867188 c 0 1.617187 1.398437 3.246093 3.105469 3.246093 h 1.035156 c 1.714844 0 3.105469 -1.453125 3.105469 -3.246093 c 0 -1.542969 -1.03125 -2.835938 -2.414063 -3.164063 c -0.222656 -0.054687 -0.453125 -0.082031 -0.691406 -0.082031" fill="url(#a)" transform="matrix(1 0 0 1 -159.99999 -172)"/>
    </g>
</svg>
